<?xml version="1.0" standalone="no"?>
<!DOCTYPE svg PUBLIC "-//W3C//DTD SVG 20010904//EN"
 "http://www.w3.org/TR/2001/REC-SVG-20010904/DTD/svg10.dtd">
<svg version="1.0" xmlns="http://www.w3.org/2000/svg"
 width="512.000000pt" height="512.000000pt" viewBox="0 0 512.000000 512.000000"
 preserveAspectRatio="xMidYMid meet">
<metadata>
Created by potrace 1.14, written by Peter Selinger 2001-2017
</metadata>
<g transform="translate(0.000000,512.000000) scale(0.100000,-0.100000)"
fill="#000000" stroke="none">
<path d="M0 2560 l0 -2560 2560 0 2560 0 0 2560 0 2560 -2560 0 -2560 0 0
-2560z m2573 2336 c10 -11 17 -51 22 -133 3 -65 10 -147 15 -183 11 -75 3 -90
-46 -90 -50 0 -75 16 -122 78 -50 67 -108 132 -116 132 -8 0 -6 -95 3 -154 7
-41 5 -52 -10 -67 -26 -26 -65 -24 -83 4 -13 22 -28 175 -30 322 l-1 70 42 3
c23 2 51 -2 62 -7 10 -6 54 -53 96 -106 42 -52 80 -95 86 -95 5 0 6 23 2 58
-4 31 -8 79 -8 107 0 43 3 51 25 62 32 16 45 16 63 -1z m1128 -280 c19 -8 47
-28 63 -45 l30 -31 -22 -45 c-12 -25 -27 -45 -34 -45 -7 0 -22 14 -33 30 -56
83 -173 39 -177 -67 0 -21 2 -48 6 -61 9 -27 54 -52 95 -52 16 0 32 -4 36 -10
6 -9 -9 -41 -34 -72 -39 -49 -157 14 -205 109 -43 85 12 239 102 287 36 18
131 20 173 2z m-2357 -208 c19 -29 67 -99 106 -156 l70 -103 -29 -30 c-33 -32
-54 -36 -73 -14 -7 9 -18 21 -23 28 -6 7 -39 55 -74 107 -35 52 -72 104 -82
116 -26 28 -24 68 4 87 41 29 64 21 101 -35z m2373 -644 c3 -9 -4 -55 -16
-102 -13 -48 -27 -104 -32 -124 -20 -84 -28 -116 -44 -173 -17 -62 -30 -114
-44 -175 -5 -19 -32 -125 -61 -235 -29 -110 -56 -216 -61 -235 -4 -19 -19 -80
-34 -135 -15 -55 -31 -116 -35 -135 -4 -19 -20 -80 -35 -135 -27 -100 -37
-143 -54 -212 -5 -21 -32 -128 -61 -238 -29 -110 -56 -216 -60 -235 -5 -19
-20 -80 -35 -135 -15 -55 -29 -110 -32 -123 -3 -12 -14 -27 -24 -32 -11 -7
-302 -9 -791 -8 l-773 3 1 40 c0 22 13 83 28 135 15 52 31 111 36 130 4 19 15
60 24 90 9 30 29 105 46 165 29 107 55 205 104 383 13 48 35 128 49 177 13 50
35 126 47 170 12 44 26 96 30 115 9 35 34 130 50 185 31 110 44 158 60 220 10
39 30 113 45 165 14 52 34 127 45 165 10 39 26 97 35 130 9 33 21 77 26 99 5
21 14 47 20 57 9 18 38 19 775 19 689 0 765 -2 771 -16z m793 -4 c63 -32 120
-126 120 -199 0 -46 -30 -118 -63 -154 -84 -89 -204 -90 -292 -2 -45 46 -65
94 -65 161 0 83 43 159 109 194 49 26 140 26 191 0z m-3866 -119 c16 -17 16
-21 -4 -71 -23 -59 -22 -75 10 -83 17 -4 24 3 42 43 25 57 41 67 74 45 24 -15
33 -58 15 -69 -14 -9 -19 -55 -7 -70 6 -8 30 -24 53 -36 23 -12 45 -30 48 -40
6 -19 -16 -73 -34 -84 -5 -3 -46 13 -92 35 -46 23 -121 59 -167 80 -46 22 -85
46 -88 54 -3 8 6 40 21 71 15 31 35 76 46 100 14 34 24 44 42 44 13 0 32 -8
41 -19z m-113 -1127 c31 -15 59 -66 59 -104 0 -34 -28 -79 -60 -95 -49 -25
-88 -19 -126 19 -28 28 -34 42 -34 76 0 95 80 147 161 104z m4225 0 c95 -63
54 -214 -58 -214 -28 0 -47 8 -70 29 -30 27 -33 35 -33 86 0 53 3 59 35 86 40
33 87 38 126 13z m-173 -622 c3 -4 3 -19 0 -35 -4 -18 -11 -27 -25 -27 -11 0
-35 -15 -54 -34 -56 -56 -43 -111 37 -161 53 -34 90 -32 129 6 26 27 31 38 28
73 -4 49 -28 60 -46 21 -13 -28 -56 -35 -66 -10 -6 16 38 107 60 126 16 13 69
-10 109 -47 25 -23 26 -29 20 -76 -10 -69 -28 -108 -66 -146 -40 -39 -83 -52
-135 -42 -62 12 -88 26 -122 64 -44 50 -59 104 -43 159 13 42 51 101 81 124
17 14 86 17 93 5z m-3729 -159 c95 -176 101 -192 85 -208 -16 -17 -49 -11 -49
9 0 6 -9 22 -19 35 l-18 23 -59 -32 c-32 -18 -82 -48 -111 -66 -64 -42 -90
-44 -99 -7 -6 22 -2 31 22 50 16 12 32 23 36 23 8 0 148 86 161 99 5 5 0 25
-11 48 -15 28 -17 44 -11 56 18 31 46 20 73 -30z m3374 -570 l121 -128 -27
-28 c-16 -17 -32 -25 -42 -22 -8 4 -33 10 -55 15 -22 5 -64 14 -93 21 -29 6
-55 9 -59 5 -3 -3 21 -35 55 -70 34 -35 62 -71 62 -80 0 -19 -36 -40 -53 -29
-27 17 -222 226 -225 242 -2 9 6 25 18 36 18 17 25 17 78 5 31 -7 64 -17 72
-20 27 -13 100 -22 100 -13 0 5 -23 34 -51 64 -62 66 -72 88 -51 112 8 9 18
17 23 17 4 0 61 -57 127 -127z m-2812 -144 c35 -17 77 -43 94 -59 62 -58 28
-174 -54 -182 -20 -2 -30 -8 -28 -17 2 -7 6 -49 9 -92 l6 -79 -30 15 c-36 18
-49 49 -57 129 -5 56 -26 96 -50 96 -6 0 -25 -26 -41 -57 -17 -31 -36 -58 -41
-60 -6 -2 -21 5 -34 15 l-23 19 40 79 c22 43 56 112 77 152 23 46 42 72 53 72
9 0 45 -14 79 -31z m2099 -441 c37 -73 71 -137 76 -143 16 -17 9 -41 -16 -55
-31 -17 -32 -15 -85 85 -24 44 -55 103 -69 130 -40 73 -42 83 -25 100 34 34
49 19 119 -117z m-1433 35 c16 -14 18 -35 18 -200 0 -159 -2 -183 -16 -183
-28 0 -54 20 -54 43 0 50 -12 64 -70 90 l-58 25 -31 -31 c-26 -27 -34 -30 -57
-22 -15 6 -29 15 -31 22 -2 6 17 36 44 65 26 30 79 88 117 131 73 82 101 94
138 60z m813 -92 c70 -38 97 -174 53 -261 -34 -65 -72 -81 -183 -78 l-90 3 0
175 0 174 25 6 c42 11 163 -1 195 -19z"/>
<path d="M2804 3491 c-59 -27 -98 -73 -154 -186 -56 -112 -86 -199 -124 -360
-46 -188 -49 -200 -57 -209 -5 -6 -92 -9 -202 -7 -175 2 -194 1 -209 -16 -14
-15 -37 -78 -77 -208 -5 -16 -28 -91 -51 -165 -23 -74 -46 -151 -52 -170 -6
-19 -15 -45 -19 -58 -5 -13 -7 -28 -4 -33 4 -5 80 -9 170 -9 90 0 170 -3 179
-6 29 -11 21 -53 -65 -318 -16 -49 -29 -99 -29 -112 l0 -24 219 0 c163 0 221
3 229 13 10 12 52 136 111 324 18 56 37 106 44 110 7 4 97 10 201 13 l189 5
13 40 c7 22 25 85 40 140 14 55 30 111 34 125 5 14 20 72 35 130 15 58 31 115
36 128 5 13 9 36 9 52 l0 30 -182 2 -183 3 -5 60 c-6 64 -25 108 -59 139 -47
42 -65 87 -65 157 0 72 15 106 59 135 21 14 30 14 54 4 31 -12 34 -19 46 -115
14 -106 71 -147 156 -111 39 16 80 58 97 99 17 39 15 163 -3 215 -32 92 -87
152 -169 186 -53 22 -160 21 -212 -3z m353 -859 c13 -8 12 -13 -29 -162 -5
-19 -13 -51 -18 -70 -32 -135 -61 -226 -76 -237 -14 -10 -134 -13 -541 -13
-457 0 -524 2 -529 15 -4 8 6 50 20 93 60 178 96 295 96 311 0 10 11 30 25 45
l24 26 508 0 c279 0 514 -4 520 -8z"/>
<path d="M2151 2460 c-17 -10 -34 -131 -21 -144 5 -5 14 2 21 17 7 15 20 29
31 32 14 5 17 12 12 31 -5 18 -1 29 12 39 11 7 17 15 14 18 -12 10 -56 15 -69
7z"/>
<path d="M2755 2461 c-33 -14 -47 -38 -49 -80 -1 -49 27 -83 63 -79 34 4 41
35 9 40 -17 2 -24 11 -26 31 -4 35 13 57 45 57 18 0 24 5 21 18 -4 19 -33 25
-63 13z"/>
<path d="M2970 2463 c-36 -13 -50 -36 -50 -83 0 -90 71 -113 142 -47 62 58
-10 160 -92 130z m58 -45 c7 -7 12 -21 12 -33 0 -45 -60 -63 -80 -24 -23 41
35 90 68 57z"/>
<path d="M2331 2447 c-15 -19 -19 -129 -4 -134 22 -8 46 128 24 141 -5 3 -14
0 -20 -7z"/>
<path d="M2471 2433 c-12 -32 -18 -109 -9 -119 10 -10 28 6 39 34 l10 26 18
-31 c11 -16 28 -33 40 -36 17 -4 21 1 27 32 3 20 10 53 14 74 5 21 4 40 -1 43
-16 9 -39 -16 -39 -42 0 -34 -12 -30 -34 11 -23 42 -50 45 -65 8z"/>
<path d="M4371 3652 c-20 -10 -43 -33 -54 -54 -16 -32 -17 -43 -7 -74 13 -37
59 -74 95 -74 32 0 88 35 107 66 21 37 22 67 3 105 -26 49 -84 62 -144 31z"/>
<path d="M1351 944 c-19 -42 -13 -58 28 -78 51 -24 91 -16 91 19 0 24 -35 56
-82 74 -22 8 -27 6 -37 -15z"/>
<path d="M1973 481 c-22 -28 -22 -29 -3 -46 31 -28 55 -16 55 30 0 49 -21 56
-52 16z"/>
<path d="M2750 461 c-5 -11 -10 -63 -10 -115 0 -94 1 -96 25 -102 48 -12 94 4
112 39 33 64 15 164 -33 186 -39 17 -82 14 -94 -8z"/>
</g>
</svg>
